# xmcd
#
# Track frame offsets:
#	150
#	18152
#	38792
#	52802
#
# Disc length: 900 seconds
#
# Revision: 1
# Processed by: cddbd v1.4PL0 Copyright (c) Steve Scherf et al.
# Submitted via: audiograbber 1.80
#
DISCID=22038204
DTITLE=Al Green and Lyle Lovett - Funny How Time Slips Away
DYEAR=1900
DGENRE=
TTITLE0=Funny How Time Slips Away (Single Edit)
TTITLE1=Funny How Time Slips Away (Album Version)
TTITLE2=You Can't Resist It (Re-Recorded Version)
TTITLE3=M-O-N-E-Y (Remix)
EXTD=
EXTT0=
EXTT1=
EXTT2=
EXTT3=
PLAYORDER=
